<?xml version="1.0" encoding="UTF-8" standalone="no"?>
<svg
   xmlns:dc="http://purl.org/dc/elements/1.1/"
   xmlns:cc="http://creativecommons.org/ns#"
   xmlns:rdf="http://www.w3.org/1999/02/22-rdf-syntax-ns#"
   xmlns:svg="http://www.w3.org/2000/svg"
   xmlns="http://www.w3.org/2000/svg"
   xml:space="preserve"
   style="enable-background:new 0 0 452.025 452.025;"
   viewBox="0 0 452.025 452.025"
   y="0px"
   x="0px"
   id="Capa_1"
   version="1.1"><metadata
   id="metadata79"><rdf:RDF><cc:Work
       rdf:about=""><dc:format>image/svg+xml</dc:format><dc:type
         rdf:resource="http://purl.org/dc/dcmitype/StillImage" /><dc:title></dc:title></cc:Work></rdf:RDF></metadata><defs
   id="defs77">
	

		
		
		
		
		
		
		
		
		
		
		
		
		
		
		
		
		
		
		
	</defs>

<g
   id="g44">
</g>
<g
   id="g46">
</g>
<g
   id="g48">
</g>
<g
   id="g50">
</g>
<g
   id="g52">
</g>
<g
   id="g54">
</g>
<g
   id="g56">
</g>
<g
   id="g58">
</g>
<g
   id="g60">
</g>
<g
   id="g62">
</g>
<g
   id="g64">
</g>
<g
   id="g66">
</g>
<g
   id="g68">
</g>
<g
   id="g70">
</g>
<g
   id="g72">
</g>
<g
   id="g973"><path
     d="m 147.912,363.325 c -4.7,-4.7 -12.3,-4.7 -17,0 -4.7,4.7 -4.7,12.3 0,17 l 13.6,13.6 h -55.2 c -35.9,0 -65,-29.2 -65,-65 v -40.3 c 0,-6.6 -5.4,-12 -12,-12 -6.6,0 -12,5.4 -12,12 v 40.3 c 0,49.1 39.9,89 89,89 h 55.2 l -13.6,13.6 c -4.7,4.7 -4.7,12.3 0,17 2.3,2.3 5.4,3.5 8.5,3.5 3.1,0 6.1,-1.2 8.5,-3.5 l 34.1,-34.1 c 4.7,-4.7 4.7,-12.3 0,-17 z"
     id="path2"
     style="fill:#00384e;fill-opacity:1" /><path
     d="m 210.312,0.025 h -197.1 c -6.6,0 -12,5.4 -12,12 v 197.1 c 0,6.6 5.4,12 12,12 h 197.1 c 6.6,0 12,-5.4 12,-12 v -197.1 c 0,-6.6 -5.3,-12 -12,-12 z m -12,197.1 h -173.1 v -173.1 h 173.1 z"
     id="path4"
     style="fill:#00384e;fill-opacity:1" /><path
     d="m 362.612,34.125 h -55.2 l 13.6,-13.6 c 4.7,-4.7 4.7,-12.3 0,-17 -4.7,-4.7 -12.3,-4.7 -17,0 l -34,34.1 c -4.7,4.7 -4.7,12.3 0,17 l 34.1,34.1 c 2.3,2.3 5.4,3.5 8.5,3.5 3.1,0 6.1,-1.2 8.5,-3.5 4.7,-4.7 4.7,-12.3 0,-17 l -13.6,-13.6 h 55.2 c 35.9,0 65,29.2 65,65 v 40.3 c 0,6.6 5.4,12 12,12 6.6,0 12,-5.4 12,-12 v -40.3 c 0,-49.1 -40,-89 -89.1,-89 z"
     id="path6"
     style="fill:#cb4f24;fill-opacity:1" /><path
     d="m 438.812,428.025 c -3.2,0 -6.3,1.3 -8.5,3.5 -2.2,2.2 -3.5,5.3 -3.5,8.5 0,3.1 1.3,6.3 3.5,8.5 2.2,2.2 5.3,3.5 8.5,3.5 3.2,0 6.3,-1.3 8.5,-3.5 2.2,-2.2 3.5,-5.3 3.5,-8.5 0,-3.2 -1.3,-6.3 -3.5,-8.5 -2.3,-2.2 -5.4,-3.5 -8.5,-3.5 z"
     id="path8"
     style="fill:#cb4f24;fill-opacity:1" /><path
     d="m 389.512,428.025 c -6.6,0 -12,5.4 -12,12 0,6.6 5.4,12 12,12 6.6,0 12,-5.4 12,-12 0,-6.6 -5.4,-12 -12,-12 z"
     id="path10"
     style="fill:#cb4f24;fill-opacity:1" /><path
     d="m 290.912,428.025 c -6.6,0 -12,5.4 -12,12 0,6.6 5.4,12 12,12 6.6,0 12,-5.4 12,-12 0,-6.6 -5.3,-12 -12,-12 z"
     id="path12"
     style="fill:#cb4f24;fill-opacity:1" /><path
     d="m 340.212,428.025 c -6.6,0 -12,5.4 -12,12 0,6.6 5.4,12 12,12 6.6,0 12,-5.4 12,-12 0,-6.6 -5.4,-12 -12,-12 z"
     id="path14"
     style="fill:#cb4f24;fill-opacity:1" /><path
     d="m 241.713,428.025 c -3.2,0 -6.3,1.3 -8.5,3.5 -2.2,2.2 -3.5,5.3 -3.5,8.5 0,3.1 1.3,6.3 3.5,8.5 2.2,2.2 5.3,3.5 8.5,3.5 3.1,0 6.3,-1.3 8.5,-3.5 2.2,-2.2 3.5,-5.3 3.5,-8.5 0,-3.2 -1.3,-6.3 -3.5,-8.5 -2.2,-2.2 -5.401,-3.5 -8.5,-3.5 z"
     id="path16"
     style="fill:#cb4f24;fill-opacity:1" /><path
     d="m 241.713,378.725 c -6.6,0 -12,5.4 -12,12 0,6.6 5.4,12 12,12 6.6,0 12,-5.4 12,-12 0,-6.6 -5.401,-12 -12,-12 z"
     id="path18"
     style="fill:#cb4f24;fill-opacity:1" /><path
     d="m 241.713,329.425 c -6.6,0 -12,5.4 -12,12 0,6.6 5.4,12 12,12 6.6,0 12,-5.4 12,-12 0,-6.6 -5.401,-12 -12,-12 z"
     id="path20"
     style="fill:#cb4f24;fill-opacity:1" /><path
     d="m 241.713,280.125 c -6.6,0 -12,5.4 -12,12 0,6.6 5.4,12 12,12 6.6,0 12,-5.4 12,-12 0,-6.6 -5.401,-12 -12,-12 z"
     id="path22"
     style="fill:#cb4f24;fill-opacity:1" /><path
     d="m 241.713,230.925 c -3.2,0 -6.3,1.3 -8.5,3.5 -2.2,2.2 -3.5,5.3 -3.5,8.5 0,3.2 1.3,6.3 3.5,8.5 2.2,2.2 5.3,3.5 8.5,3.5 3.1,0 6.3,-1.3 8.5,-3.5 2.2,-2.2 3.5,-5.3 3.5,-8.5 0,-3.1 -1.3,-6.3 -3.5,-8.5 -2.301,-2.3 -5.401,-3.5 -8.5,-3.5 z"
     id="path24"
     style="fill:#cb4f24;fill-opacity:1" /><path
     d="m 389.512,230.925 c -6.6,0 -12,5.4 -12,12 0,6.6 5.4,12 12,12 6.6,0 12,-5.4 12,-12 0,-6.6 -5.4,-12 -12,-12 z"
     id="path26"
     style="fill:#cb4f24;fill-opacity:1" /><path
     d="m 340.212,230.925 c -6.6,0 -12,5.4 -12,12 0,6.6 5.4,12 12,12 6.6,0 12,-5.4 12,-12 0,-6.6 -5.4,-12 -12,-12 z"
     id="path28"
     style="fill:#cb4f24;fill-opacity:1" /><path
     d="m 290.912,230.925 c -6.6,0 -12,5.4 -12,12 0,6.6 5.4,12 12,12 6.6,0 12,-5.4 12,-12 0,-6.6 -5.3,-12 -12,-12 z"
     id="path30"
     style="fill:#cb4f24;fill-opacity:1" /><path
     d="m 438.812,230.925 c -3.2,0 -6.3,1.3 -8.5,3.5 -2.2,2.2 -3.5,5.3 -3.5,8.5 0,3.2 1.3,6.3 3.5,8.5 2.2,2.2 5.3,3.5 8.5,3.5 3.2,0 6.3,-1.3 8.5,-3.5 2.2,-2.2 3.5,-5.3 3.5,-8.5 0,-3.1 -1.3,-6.3 -3.5,-8.5 -2.3,-2.2 -5.4,-3.5 -8.5,-3.5 z"
     id="path32"
     style="fill:#cb4f24;fill-opacity:1" /><path
     d="m 438.812,280.125 c -6.6,0 -12,5.4 -12,12 0,6.6 5.4,12 12,12 6.6,0 12,-5.4 12,-12 0,-6.6 -5.4,-12 -12,-12 z"
     id="path34"
     style="fill:#cb4f24;fill-opacity:1" /><path
     d="m 438.812,378.725 c -6.6,0 -12,5.4 -12,12 0,6.6 5.4,12 12,12 6.6,0 12,-5.4 12,-12 0,-6.6 -5.4,-12 -12,-12 z"
     id="path36"
     style="fill:#cb4f24;fill-opacity:1" /><path
     d="m 438.812,329.425 c -6.6,0 -12,5.4 -12,12 0,6.6 5.4,12 12,12 6.6,0 12,-5.4 12,-12 0,-6.6 -5.4,-12 -12,-12 z"
     id="path38"
     style="fill:#cb4f24;fill-opacity:1" /><text
     xml:space="preserve"
     style="font-style:normal;font-weight:normal;font-size:184.50512695px;line-height:1.25;font-family:sans-serif;letter-spacing:0px;word-spacing:0px;fill:#00384e;fill-opacity:1;stroke:none;stroke-width:4.61262846"
     x="48.670422"
     y="178.12849"
     id="text930"><tspan
       id="tspan928"
       x="48.670422"
       y="178.12849"
       style="stroke-width:4.61262846">A</tspan></text>
<text
     xml:space="preserve"
     style="font-style:normal;font-weight:normal;font-size:184.50512695px;line-height:1.25;font-family:sans-serif;letter-spacing:0px;word-spacing:0px;fill:#cb4f24;fill-opacity:1;stroke:none;stroke-width:4.61262846;"
     x="275.95547"
     y="412.0173"
     id="text930-3"><tspan
       id="tspan928-6"
       x="275.95547"
       y="412.0173"
       style="stroke-width:4.61262846;fill:#cb4f24;fill-opacity:1;">B</tspan></text>
</g></svg>